G04 EAGLE Gerber RS-274X export*
G75*
%MOMM*%
%FSLAX34Y34*%
%LPD*%
%INSolderpaste Top*%
%IPPOS*%
%AMOC8*
5,1,8,0,0,1.08239X$1,22.5*%
G01*
%ADD10R,1.300000X1.500000*%
%ADD11R,1.500000X1.300000*%
%ADD12R,1.524000X0.762000*%
%ADD13R,2.300000X1.600000*%
%ADD14R,4.000000X0.400000*%
%ADD15C,0.300000*%


D10*
X263500Y368300D03*
X244500Y368300D03*
X263500Y342900D03*
X244500Y342900D03*
D11*
X177800Y244500D03*
X177800Y263500D03*
D10*
X263500Y317500D03*
X244500Y317500D03*
D11*
X152400Y244500D03*
X152400Y263500D03*
D12*
X497840Y273050D03*
X553720Y273050D03*
X497840Y234950D03*
X553720Y234950D03*
X641350Y273050D03*
X697230Y273050D03*
X641350Y234950D03*
X697230Y234950D03*
X137160Y196850D03*
X193040Y196850D03*
X137160Y158750D03*
X193040Y158750D03*
X60960Y273050D03*
X116840Y273050D03*
X60960Y234950D03*
X116840Y234950D03*
D13*
X603500Y419100D03*
X666500Y419100D03*
D12*
X213360Y273050D03*
X269240Y273050D03*
X213360Y234950D03*
X269240Y234950D03*
D13*
X95500Y419100D03*
X158500Y419100D03*
X235200Y419100D03*
X298200Y419100D03*
D12*
X193040Y311150D03*
X137160Y311150D03*
X193040Y349250D03*
X137160Y349250D03*
D14*
X247000Y677100D03*
X247000Y669100D03*
X247000Y685100D03*
X247000Y693100D03*
X247000Y701100D03*
X247000Y709100D03*
X247000Y717100D03*
X247000Y725100D03*
X247000Y661100D03*
X247000Y653100D03*
X247000Y645100D03*
X247000Y637100D03*
X247000Y629100D03*
X247000Y621100D03*
X247000Y733100D03*
X247000Y741100D03*
X247000Y613100D03*
X247000Y605100D03*
D11*
X25400Y720700D03*
X25400Y701700D03*
X50800Y720700D03*
X50800Y701700D03*
D15*
X28900Y756730D02*
X21900Y756730D01*
X28900Y756730D02*
X28900Y749730D01*
X21900Y749730D01*
X21900Y756730D01*
X21900Y752580D02*
X28900Y752580D01*
X28900Y755430D02*
X21900Y755430D01*
X21900Y774270D02*
X28900Y774270D01*
X28900Y767270D01*
X21900Y767270D01*
X21900Y774270D01*
X21900Y770120D02*
X28900Y770120D01*
X28900Y772970D02*
X21900Y772970D01*
X47300Y756730D02*
X54300Y756730D01*
X54300Y749730D01*
X47300Y749730D01*
X47300Y756730D01*
X47300Y752580D02*
X54300Y752580D01*
X54300Y755430D02*
X47300Y755430D01*
X47300Y774270D02*
X54300Y774270D01*
X54300Y767270D01*
X47300Y767270D01*
X47300Y774270D01*
X47300Y770120D02*
X54300Y770120D01*
X54300Y772970D02*
X47300Y772970D01*
M02*
