G04 EAGLE Gerber RS-274X export*
G75*
%MOMM*%
%FSLAX34Y34*%
%LPD*%
%INSoldermask Top*%
%IPPOS*%
%AMOC8*
5,1,8,0,0,1.08239X$1,22.5*%
G01*
%ADD10R,1.503200X1.703200*%
%ADD11R,1.703200X1.503200*%
%ADD12C,1.103200*%
%ADD13R,1.727200X0.965200*%
%ADD14R,2.503200X1.803200*%
%ADD15R,4.203200X0.603200*%
%ADD16C,3.203200*%
%ADD17C,0.505344*%
%ADD18C,2.082800*%
%ADD19C,1.803200*%


D10*
X263500Y368300D03*
X244500Y368300D03*
X263500Y342900D03*
X244500Y342900D03*
D11*
X177800Y244500D03*
X177800Y263500D03*
D10*
X263500Y317500D03*
X244500Y317500D03*
D11*
X152400Y244500D03*
X152400Y263500D03*
D12*
X737870Y536970D03*
X737870Y506970D03*
D13*
X497840Y273050D03*
X553720Y273050D03*
X497840Y234950D03*
X553720Y234950D03*
X641350Y273050D03*
X697230Y273050D03*
X641350Y234950D03*
X697230Y234950D03*
X137160Y196850D03*
X193040Y196850D03*
X137160Y158750D03*
X193040Y158750D03*
X60960Y273050D03*
X116840Y273050D03*
X60960Y234950D03*
X116840Y234950D03*
D14*
X603500Y419100D03*
X666500Y419100D03*
D13*
X213360Y273050D03*
X269240Y273050D03*
X213360Y234950D03*
X269240Y234950D03*
D14*
X95500Y419100D03*
X158500Y419100D03*
X235200Y419100D03*
X298200Y419100D03*
D13*
X193040Y311150D03*
X137160Y311150D03*
X193040Y349250D03*
X137160Y349250D03*
D15*
X247000Y677100D03*
X247000Y669100D03*
X247000Y685100D03*
X247000Y693100D03*
X247000Y701100D03*
X247000Y709100D03*
X247000Y717100D03*
X247000Y725100D03*
X247000Y661100D03*
X247000Y653100D03*
X247000Y645100D03*
X247000Y637100D03*
X247000Y629100D03*
X247000Y621100D03*
X247000Y733100D03*
X247000Y741100D03*
X247000Y613100D03*
X247000Y605100D03*
D16*
X38100Y38100D03*
X38100Y939800D03*
X723900Y38100D03*
X723900Y939800D03*
D11*
X25400Y720700D03*
X25400Y701700D03*
X50800Y720700D03*
X50800Y701700D03*
D17*
X28890Y756720D02*
X21910Y756720D01*
X28890Y756720D02*
X28890Y749740D01*
X21910Y749740D01*
X21910Y756720D01*
X21910Y754540D02*
X28890Y754540D01*
X28890Y774260D02*
X21910Y774260D01*
X28890Y774260D02*
X28890Y767280D01*
X21910Y767280D01*
X21910Y774260D01*
X21910Y772080D02*
X28890Y772080D01*
X47310Y756720D02*
X54290Y756720D01*
X54290Y749740D01*
X47310Y749740D01*
X47310Y756720D01*
X47310Y754540D02*
X54290Y754540D01*
X54290Y774260D02*
X47310Y774260D01*
X54290Y774260D02*
X54290Y767280D01*
X47310Y767280D01*
X47310Y774260D01*
X47310Y772080D02*
X54290Y772080D01*
D18*
X269240Y142240D03*
X266700Y116840D03*
X269240Y91440D03*
X266700Y66040D03*
X269240Y40640D03*
X266700Y15240D03*
D19*
X300200Y939800D03*
X320200Y939800D03*
X340200Y939800D03*
X360200Y939800D03*
M02*
