G04 EAGLE Gerber RS-274X export*
G75*
%MOMM*%
%FSLAX34Y34*%
%LPD*%
%INSolderpaste Bottom*%
%IPPOS*%
%AMOC8*
5,1,8,0,0,1.08239X$1,22.5*%
G01*
%ADD10R,2.533469X2.531044*%
%ADD11R,2.000000X0.900000*%
%ADD12R,1.500000X1.300000*%
%ADD13R,1.300000X1.500000*%
%ADD14R,4.600000X1.000000*%
%ADD15R,3.400000X1.600000*%
%ADD16R,2.540000X2.540000*%
%ADD17R,0.800000X0.900000*%
%ADD18R,0.800000X1.000000*%
%ADD19R,1.500000X0.700000*%
%ADD20R,0.889000X0.787400*%
%ADD21R,0.500000X0.750000*%
%ADD22R,1.200000X1.800000*%
%ADD23R,1.200000X2.200000*%
%ADD24R,1.600000X1.500000*%
%ADD25R,1.200000X0.550000*%
%ADD26R,0.600000X1.200000*%
%ADD27R,0.700000X1.300000*%
%ADD28R,1.460000X2.000000*%
%ADD29R,2.500000X1.425000*%
%ADD30R,2.500000X1.000000*%
%ADD31R,6.000000X2.500000*%
%ADD32R,0.900000X0.800000*%

G36*
X35413Y457311D02*
X35413Y457311D01*
X35418Y457310D01*
X35511Y457331D01*
X35605Y457350D01*
X35609Y457353D01*
X35614Y457354D01*
X35692Y457409D01*
X35770Y457463D01*
X35773Y457467D01*
X35777Y457470D01*
X35828Y457551D01*
X35880Y457631D01*
X35880Y457636D01*
X35883Y457640D01*
X35915Y457818D01*
X35915Y476614D01*
X35914Y476619D01*
X35915Y476624D01*
X35894Y476717D01*
X35876Y476810D01*
X35873Y476814D01*
X35872Y476820D01*
X35816Y476897D01*
X35763Y476976D01*
X35759Y476979D01*
X35756Y476983D01*
X35674Y477034D01*
X35595Y477085D01*
X35590Y477086D01*
X35585Y477089D01*
X35408Y477121D01*
X10008Y477121D01*
X9982Y477116D01*
X9951Y477118D01*
X9216Y477035D01*
X9169Y477020D01*
X9106Y477010D01*
X8408Y476765D01*
X8365Y476740D01*
X8305Y476716D01*
X7679Y476323D01*
X7644Y476289D01*
X7591Y476252D01*
X7068Y475729D01*
X7040Y475688D01*
X6997Y475640D01*
X6604Y475014D01*
X6586Y474968D01*
X6554Y474912D01*
X6310Y474214D01*
X6303Y474165D01*
X6285Y474103D01*
X6202Y473368D01*
X6204Y473342D01*
X6199Y473312D01*
X6199Y465946D01*
X6202Y465931D01*
X6200Y465923D01*
X6203Y465909D01*
X6202Y465889D01*
X6278Y465211D01*
X6293Y465164D01*
X6304Y465100D01*
X6529Y464456D01*
X6554Y464413D01*
X6578Y464353D01*
X6941Y463775D01*
X6975Y463740D01*
X7012Y463687D01*
X7495Y463204D01*
X7536Y463177D01*
X7584Y463133D01*
X8162Y462770D01*
X8208Y462752D01*
X8264Y462721D01*
X8908Y462495D01*
X8957Y462488D01*
X9019Y462470D01*
X9697Y462394D01*
X9724Y462396D01*
X9754Y462390D01*
X27027Y462390D01*
X27027Y457818D01*
X27028Y457813D01*
X27027Y457807D01*
X27048Y457714D01*
X27066Y457621D01*
X27069Y457617D01*
X27070Y457612D01*
X27126Y457534D01*
X27179Y457455D01*
X27183Y457452D01*
X27186Y457448D01*
X27268Y457398D01*
X27347Y457346D01*
X27352Y457345D01*
X27357Y457342D01*
X27534Y457310D01*
X35408Y457310D01*
X35413Y457311D01*
G37*
G36*
X35413Y515892D02*
X35413Y515892D01*
X35418Y515891D01*
X35511Y515912D01*
X35605Y515930D01*
X35609Y515933D01*
X35614Y515934D01*
X35692Y515990D01*
X35770Y516043D01*
X35773Y516047D01*
X35777Y516050D01*
X35828Y516132D01*
X35880Y516211D01*
X35880Y516216D01*
X35883Y516221D01*
X35915Y516398D01*
X35915Y535194D01*
X35914Y535199D01*
X35915Y535204D01*
X35894Y535297D01*
X35876Y535391D01*
X35873Y535395D01*
X35872Y535400D01*
X35816Y535478D01*
X35763Y535556D01*
X35759Y535559D01*
X35756Y535563D01*
X35674Y535614D01*
X35595Y535666D01*
X35590Y535666D01*
X35585Y535669D01*
X35408Y535701D01*
X27534Y535701D01*
X27529Y535700D01*
X27524Y535701D01*
X27431Y535680D01*
X27338Y535662D01*
X27333Y535659D01*
X27328Y535658D01*
X27250Y535602D01*
X27172Y535549D01*
X27169Y535545D01*
X27165Y535542D01*
X27114Y535460D01*
X27062Y535381D01*
X27062Y535376D01*
X27059Y535371D01*
X27027Y535194D01*
X27027Y530621D01*
X9754Y530621D01*
X9728Y530616D01*
X9697Y530618D01*
X9019Y530542D01*
X8972Y530527D01*
X8908Y530516D01*
X8264Y530291D01*
X8222Y530266D01*
X8162Y530242D01*
X7584Y529879D01*
X7548Y529845D01*
X7495Y529808D01*
X7012Y529325D01*
X6985Y529284D01*
X6941Y529236D01*
X6578Y528658D01*
X6561Y528612D01*
X6529Y528556D01*
X6304Y527912D01*
X6297Y527863D01*
X6278Y527801D01*
X6202Y527123D01*
X6204Y527096D01*
X6199Y527066D01*
X6199Y519700D01*
X6204Y519674D01*
X6202Y519643D01*
X6285Y518908D01*
X6300Y518861D01*
X6310Y518798D01*
X6554Y518100D01*
X6579Y518057D01*
X6604Y517997D01*
X6997Y517371D01*
X7031Y517336D01*
X7068Y517283D01*
X7591Y516760D01*
X7632Y516732D01*
X7679Y516689D01*
X8305Y516296D01*
X8352Y516278D01*
X8408Y516246D01*
X9106Y516002D01*
X9155Y515995D01*
X9216Y515977D01*
X9951Y515894D01*
X9978Y515896D01*
X10008Y515891D01*
X35408Y515891D01*
X35413Y515892D01*
G37*
G36*
X50117Y508076D02*
X50117Y508076D01*
X50134Y508073D01*
X50183Y508095D01*
X50235Y508110D01*
X50246Y508123D01*
X50262Y508130D01*
X50292Y508175D01*
X50327Y508215D01*
X50330Y508232D01*
X50339Y508247D01*
X50350Y508320D01*
X50350Y510820D01*
X50346Y510834D01*
X50348Y510846D01*
X50347Y510848D01*
X50348Y510853D01*
X50326Y510903D01*
X50311Y510954D01*
X50298Y510965D01*
X50291Y510981D01*
X50246Y511011D01*
X50206Y511046D01*
X50189Y511049D01*
X50174Y511058D01*
X50101Y511069D01*
X33851Y511069D01*
X33834Y511064D01*
X33817Y511067D01*
X33768Y511045D01*
X33717Y511030D01*
X33705Y511017D01*
X33690Y511010D01*
X33660Y510965D01*
X33625Y510925D01*
X33622Y510908D01*
X33613Y510894D01*
X33602Y510820D01*
X33602Y508320D01*
X33606Y508304D01*
X33604Y508287D01*
X33626Y508237D01*
X33641Y508186D01*
X33654Y508175D01*
X33661Y508159D01*
X33706Y508129D01*
X33746Y508094D01*
X33763Y508091D01*
X33777Y508082D01*
X33851Y508071D01*
X50101Y508071D01*
X50117Y508076D01*
G37*
G36*
X50117Y501576D02*
X50117Y501576D01*
X50134Y501573D01*
X50183Y501595D01*
X50235Y501610D01*
X50246Y501623D01*
X50262Y501630D01*
X50292Y501675D01*
X50327Y501715D01*
X50330Y501732D01*
X50339Y501747D01*
X50350Y501820D01*
X50350Y504320D01*
X50346Y504334D01*
X50348Y504346D01*
X50347Y504348D01*
X50348Y504353D01*
X50326Y504403D01*
X50311Y504454D01*
X50298Y504465D01*
X50291Y504481D01*
X50246Y504511D01*
X50206Y504546D01*
X50189Y504549D01*
X50174Y504558D01*
X50101Y504569D01*
X33851Y504569D01*
X33834Y504564D01*
X33817Y504567D01*
X33768Y504545D01*
X33717Y504530D01*
X33705Y504517D01*
X33690Y504510D01*
X33660Y504465D01*
X33625Y504425D01*
X33622Y504408D01*
X33613Y504394D01*
X33602Y504320D01*
X33602Y501820D01*
X33606Y501804D01*
X33604Y501787D01*
X33626Y501737D01*
X33641Y501686D01*
X33654Y501675D01*
X33661Y501659D01*
X33706Y501629D01*
X33746Y501594D01*
X33763Y501591D01*
X33777Y501582D01*
X33851Y501571D01*
X50101Y501571D01*
X50117Y501576D01*
G37*
G36*
X50117Y495076D02*
X50117Y495076D01*
X50134Y495073D01*
X50183Y495095D01*
X50235Y495110D01*
X50246Y495123D01*
X50262Y495130D01*
X50292Y495175D01*
X50327Y495215D01*
X50330Y495232D01*
X50339Y495247D01*
X50350Y495320D01*
X50350Y497820D01*
X50346Y497834D01*
X50348Y497846D01*
X50347Y497848D01*
X50348Y497853D01*
X50326Y497903D01*
X50311Y497954D01*
X50298Y497965D01*
X50291Y497981D01*
X50246Y498011D01*
X50206Y498046D01*
X50189Y498049D01*
X50174Y498058D01*
X50101Y498069D01*
X33851Y498069D01*
X33834Y498064D01*
X33817Y498067D01*
X33768Y498045D01*
X33717Y498030D01*
X33705Y498017D01*
X33690Y498010D01*
X33660Y497965D01*
X33625Y497925D01*
X33622Y497908D01*
X33613Y497894D01*
X33602Y497820D01*
X33602Y495320D01*
X33606Y495304D01*
X33604Y495287D01*
X33626Y495237D01*
X33641Y495186D01*
X33654Y495175D01*
X33661Y495159D01*
X33706Y495129D01*
X33746Y495094D01*
X33763Y495091D01*
X33777Y495082D01*
X33851Y495071D01*
X50101Y495071D01*
X50117Y495076D01*
G37*
G36*
X50117Y488576D02*
X50117Y488576D01*
X50134Y488573D01*
X50183Y488595D01*
X50235Y488610D01*
X50246Y488623D01*
X50262Y488630D01*
X50292Y488675D01*
X50327Y488715D01*
X50330Y488732D01*
X50339Y488747D01*
X50350Y488820D01*
X50350Y491320D01*
X50346Y491334D01*
X50348Y491346D01*
X50347Y491348D01*
X50348Y491353D01*
X50326Y491403D01*
X50311Y491454D01*
X50298Y491465D01*
X50291Y491481D01*
X50246Y491511D01*
X50206Y491546D01*
X50189Y491549D01*
X50174Y491558D01*
X50101Y491569D01*
X33851Y491569D01*
X33834Y491564D01*
X33817Y491567D01*
X33768Y491545D01*
X33717Y491530D01*
X33705Y491517D01*
X33690Y491510D01*
X33660Y491465D01*
X33625Y491425D01*
X33622Y491408D01*
X33613Y491394D01*
X33602Y491320D01*
X33602Y488820D01*
X33606Y488804D01*
X33604Y488787D01*
X33626Y488737D01*
X33641Y488686D01*
X33654Y488675D01*
X33661Y488659D01*
X33706Y488629D01*
X33746Y488594D01*
X33763Y488591D01*
X33777Y488582D01*
X33851Y488571D01*
X50101Y488571D01*
X50117Y488576D01*
G37*
G36*
X50117Y482076D02*
X50117Y482076D01*
X50134Y482073D01*
X50183Y482095D01*
X50235Y482110D01*
X50246Y482123D01*
X50262Y482130D01*
X50292Y482175D01*
X50327Y482215D01*
X50330Y482232D01*
X50339Y482247D01*
X50350Y482320D01*
X50350Y484820D01*
X50346Y484834D01*
X50348Y484846D01*
X50347Y484848D01*
X50348Y484853D01*
X50326Y484903D01*
X50311Y484954D01*
X50298Y484965D01*
X50291Y484981D01*
X50246Y485011D01*
X50206Y485046D01*
X50189Y485049D01*
X50174Y485058D01*
X50101Y485069D01*
X33851Y485069D01*
X33834Y485064D01*
X33817Y485067D01*
X33768Y485045D01*
X33717Y485030D01*
X33705Y485017D01*
X33690Y485010D01*
X33660Y484965D01*
X33625Y484925D01*
X33622Y484908D01*
X33613Y484894D01*
X33602Y484820D01*
X33602Y482320D01*
X33606Y482304D01*
X33604Y482287D01*
X33626Y482237D01*
X33641Y482186D01*
X33654Y482175D01*
X33661Y482159D01*
X33706Y482129D01*
X33746Y482094D01*
X33763Y482091D01*
X33777Y482082D01*
X33851Y482071D01*
X50101Y482071D01*
X50117Y482076D01*
G37*
D10*
X521817Y830195D03*
D11*
X596100Y908100D03*
X596100Y895400D03*
X596100Y882700D03*
X596100Y870000D03*
X596100Y857300D03*
X596100Y844600D03*
X596100Y831900D03*
X596100Y819200D03*
X596100Y806500D03*
X596100Y793800D03*
X596100Y781100D03*
X596100Y768400D03*
X596100Y755700D03*
X596100Y743000D03*
X596100Y730300D03*
X596100Y717600D03*
X596100Y704900D03*
X596100Y692200D03*
X596100Y679500D03*
X419900Y679500D03*
X419900Y692200D03*
X419900Y704900D03*
X419900Y717600D03*
X419900Y730300D03*
X419900Y743000D03*
X419900Y755700D03*
X419900Y768400D03*
X419900Y781100D03*
X419900Y793800D03*
X419900Y806500D03*
X419900Y819200D03*
X419900Y831900D03*
X419900Y844600D03*
X419900Y857300D03*
X419900Y870000D03*
X419900Y882700D03*
X419900Y895400D03*
X419900Y908100D03*
D12*
X666750Y559410D03*
X666750Y540410D03*
X106680Y786790D03*
X106680Y805790D03*
D13*
X666140Y607060D03*
X685140Y607060D03*
D12*
X609600Y606400D03*
X609600Y587400D03*
X647700Y860400D03*
X647700Y841400D03*
D13*
X713080Y810260D03*
X694080Y810260D03*
D14*
X51900Y193200D03*
X51900Y213200D03*
D15*
X103900Y169200D03*
X103900Y237200D03*
D16*
X723900Y429895D03*
X723900Y382905D03*
D17*
X315570Y594520D03*
X296570Y594520D03*
X306070Y615520D03*
D12*
X635000Y587400D03*
X635000Y606400D03*
X711200Y860400D03*
X711200Y841400D03*
X679450Y841400D03*
X679450Y860400D03*
D13*
X314300Y647700D03*
X295300Y647700D03*
X295300Y558800D03*
X314300Y558800D03*
X542900Y495300D03*
X523900Y495300D03*
D18*
X726870Y563470D03*
X748870Y563470D03*
X748870Y480470D03*
X726870Y480470D03*
D19*
X715370Y544470D03*
X715370Y514470D03*
X715370Y499470D03*
D20*
X652780Y372364D03*
X652780Y391668D03*
X673100Y382016D03*
D21*
X109850Y835950D03*
X120850Y835950D03*
X131850Y835950D03*
X142850Y835950D03*
X153850Y835950D03*
X164850Y835950D03*
X175850Y835950D03*
X186850Y835950D03*
X197850Y835950D03*
D22*
X97850Y846200D03*
D23*
X97850Y939200D03*
D24*
X241100Y843700D03*
D23*
X252850Y939200D03*
D25*
X609901Y504800D03*
X609901Y495300D03*
X609901Y485800D03*
X583899Y485800D03*
X583899Y504800D03*
D12*
X345440Y694080D03*
X345440Y713080D03*
X307340Y766420D03*
X307340Y747420D03*
X134620Y786790D03*
X134620Y805790D03*
D26*
X207010Y675580D03*
X194310Y675580D03*
X181610Y675580D03*
X168910Y675580D03*
X156210Y675580D03*
X143510Y675580D03*
X130810Y675580D03*
X118110Y675580D03*
X118110Y731580D03*
X130810Y731580D03*
X143510Y731580D03*
X156210Y731580D03*
X168910Y731580D03*
X181610Y731580D03*
X194310Y731580D03*
X207010Y731580D03*
D27*
X95250Y290000D03*
X82550Y290000D03*
X107950Y290000D03*
X120650Y290000D03*
X95250Y345000D03*
X82550Y345000D03*
X107950Y345000D03*
X120650Y345000D03*
D28*
X44660Y525570D03*
X44660Y467570D03*
D29*
X15160Y486945D03*
X15160Y506195D03*
D30*
X101600Y596900D03*
X101600Y622300D03*
D31*
X152400Y609600D03*
D13*
X112370Y570230D03*
X93370Y570230D03*
X112370Y647700D03*
X93370Y647700D03*
X111100Y381000D03*
X92100Y381000D03*
X47600Y406400D03*
X28600Y406400D03*
D12*
X38100Y257200D03*
X38100Y276200D03*
D13*
X28600Y368300D03*
X47600Y368300D03*
D12*
X368300Y822300D03*
X368300Y803300D03*
D17*
X301600Y840900D03*
X282600Y840900D03*
X292100Y861900D03*
D32*
X325280Y803300D03*
X325280Y822300D03*
X346280Y812800D03*
D13*
X327050Y845820D03*
X346050Y845820D03*
X301600Y812800D03*
X282600Y812800D03*
M02*
