M48
;GenerationSoftware,Autodesk,EAGLE,9.2.2*%
;CreationDate,2019-01-31T05:48:45Z*%
FMAT,2
ICI,OFF
METRIC,TZ,000.000
T6C0.508
T5C0.700
T4C0.900
T3C1.016
T2C3.000
%
G90
M71
T2
X3810Y3810
X3810Y93980
X72390Y93980
X72390Y3810
T3
X26670Y1524
X26924Y4064
X26670Y6604
X26924Y9144
X26670Y11684
X26924Y14224
T4
X73787Y53697
X73787Y50697
T5
X36020Y93980
X32020Y93980
X34020Y93980
X30020Y93980
T6
X36818Y85078
X17780Y76200
X10141Y46990
X45720Y72390
X45720Y73660
X45720Y80010
X39370Y82550
X2540Y43180
X10160Y26670
X7620Y26670
X11430Y50800
X10021Y52209
X50834Y77885
X27987Y87582
X19050Y74930
X27940Y78740
X40640Y96520
X45720Y83820
X38100Y92710
X35560Y90170
X57138Y78728
X33020Y43180
X35560Y41910
X39370Y74930
X30480Y53340
X40640Y45720
X57150Y80010
X17780Y36830
X71120Y77470
X22860Y87630
X10160Y76200
X13970Y58420
X15240Y85090
X29210Y78740
X28448Y68072
X27940Y33020
X33020Y46990
X20320Y46990
X58420Y46990
X33020Y36830
X38100Y73990
X50800Y73660
X44450Y71120
X19050Y43180
X21590Y39370
X66040Y63500
X66040Y90170
X13970Y76200
X39370Y93980
X29210Y63119
X28981Y34290
X34290Y33020
X54610Y80010
X62230Y83820
X57189Y63461
X55880Y83185
X64135Y80518
X61229Y82281
X38100Y85090
X57150Y87630
X21590Y66040
X36830Y74930
X38100Y89235
X53340Y75875
X36783Y77518
X69850Y40640
X73660Y62230
X26670Y80010
X11557Y36322
X60960Y54610
M30